<?xml version="1.0" encoding="UTF-8" standalone="no"?>
<!-- Created with Inkscape (http://www.inkscape.org/) -->

<svg
   version="1.1"
   id="svg1"
   width="128"
   height="128"
   viewBox="0 0 128 128"
   sodipodi:docname="online.svg"
   inkscape:version="1.3.2 (091e20e, 2023-11-25)"
   xmlns:inkscape="http://www.inkscape.org/namespaces/inkscape"
   xmlns:sodipodi="http://sodipodi.sourceforge.net/DTD/sodipodi-0.dtd"
   xmlns="http://www.w3.org/2000/svg"
   xmlns:svg="http://www.w3.org/2000/svg">
  <defs
     id="defs1" />
  <sodipodi:namedview
     id="namedview1"
     pagecolor="#ffffff"
     bordercolor="#000000"
     borderopacity="0.25"
     inkscape:showpageshadow="2"
     inkscape:pageopacity="0.0"
     inkscape:pagecheckerboard="0"
     inkscape:deskcolor="#d1d1d1"
     inkscape:zoom="1.84375"
     inkscape:cx="64"
     inkscape:cy="63.728814"
     inkscape:window-width="1392"
     inkscape:window-height="720"
     inkscape:window-x="0"
     inkscape:window-y="37"
     inkscape:window-maximized="0"
     inkscape:current-layer="g1" />
  <g
     inkscape:groupmode="layer"
     inkscape:label="Image"
     id="g1">
    <path
       style="fill:#18aef3;stroke:none"
       d="m 58.711861,10.896668 c -26.17977,4.088905 -45,26.110062 -45,52.560959 0,10.523419 2.72015,21.261669 8.77392,29.999999 1.9082,2.75439 5.10726,8.006594 9.08797,7.533954 3.88133,-0.46084 1.67858,-4.670674 0.42438,-6.534724 -6.43433,-9.56295 -11.65214,-18.0544 -12.1821,-29.999229 -1.38645,-31.249466 31.91643,-54.9012372 60.89583,-45.479942 21.110659,6.863136 35.968689,29.355301 32.076389,51.479941 -1.78306,10.13521 -7.01598,16.43444 -12.02855,24.99537 -1.108409,1.89306 -2.133379,5.155834 1.09028,5.538584 4.31039,0.51178 7.69662,-5.523924 9.62191,-8.533954 6.32771,-9.8928 8.71404,-21.37739 8.20062,-32.999999 C 118.31573,28.743546 88.544551,6.2372288 58.711861,10.896668 m 5,11.993057 c -20.90235,2.745858 -36.93202,17.844551 -37.89583,39.567902 -0.33908,7.642549 4.01406,28.866819 13.79784,29.962969 3.09182,0.34639 3.24125,-2.92822 2.34028,-4.9784 -3.81721,-8.68608 -9.23457,-13.79385 -9.23457,-23.984569 0,-22.678032 23.47403,-39.663788 44.99228,-32.239197 15.50676,5.350403 25.434949,22.163407 22.535499,38.239196 -1.305659,7.23909 -5.954139,11.56751 -8.777779,17.98457 -0.762,1.73173 -1.05336,4.48423 1.48226,4.83951 9.745369,1.36548 14.578899,-22.2467 14.581009,-28.824079 0.007,-22.469452 -20.654039,-43.611252 -43.820989,-40.567902 m -4,14.097222 c -13.95591,3.203605 -20.61215,16.140564 -19.95987,29.47068 0.24324,4.970889 3.28816,16.364199 9.81481,16.364199 6.0623,0 -3.04075,-13.52709 -3.52546,-16.364199 -2.26585,-13.262558 11.51177,-26.491302 24.67052,-23.47068 16.83191,3.863807 19.5192,20.657463 12.1088,33.469909 -1.07884,1.86529 -2.86781,6.36497 1.03627,6.36497 9.52963,0 10.45366,-18.086443 9.66975,-24.364199 -1.99672,-15.990341 -18.974,-24.877419 -33.81482,-21.47068 m 3,13.123459 c -8.34615,2.60717 -12.63404,12.75801 -7.99074,20.33179 2.17616,3.54957 6.82715,5.28076 8.38735,9.1196 2.40652,5.92122 0.60339,15.55809 0.60339,21.895834 0,2.55853 -1.57159,15.95837 3.74074,14.24846 4.51717,-1.45397 2.25926,-18.332444 2.25926,-22.248464 0,-4.07489 -0.73431,-8.99351 0.31791,-12.95679 1.34866,-5.07986 7.63415,-7.0296 9.67283,-12.04398 4.23185,-10.408744 -6.32455,-21.678344 -16.99074,-18.34645 m 3.00386,5.889656 c 9.37553,-1.540848 11.54833,13.344624 1.99228,14.915134 -9.37553,1.54084 -11.5483,-13.344623 -1.99228,-14.915134 z"
       id="path1" />
  </g>
</svg>
