<?xml version="1.0" encoding="UTF-8" standalone="no"?>
<!-- Created with Inkscape (http://www.inkscape.org/) -->

<svg
   version="1.1"
   id="svg1"
   width="128"
   height="128"
   viewBox="0 0 128 128"
   sodipodi:docname="service.svg"
   inkscape:version="1.3.2 (091e20e, 2023-11-25)"
   xmlns:inkscape="http://www.inkscape.org/namespaces/inkscape"
   xmlns:sodipodi="http://sodipodi.sourceforge.net/DTD/sodipodi-0.dtd"
   xmlns="http://www.w3.org/2000/svg"
   xmlns:svg="http://www.w3.org/2000/svg">
  <defs
     id="defs1" />
  <sodipodi:namedview
     id="namedview1"
     pagecolor="#ffffff"
     bordercolor="#000000"
     borderopacity="0.25"
     inkscape:showpageshadow="2"
     inkscape:pageopacity="0.0"
     inkscape:pagecheckerboard="0"
     inkscape:deskcolor="#d1d1d1"
     inkscape:zoom="1.84375"
     inkscape:cx="64"
     inkscape:cy="64"
     inkscape:window-width="1392"
     inkscape:window-height="811"
     inkscape:window-x="0"
     inkscape:window-y="37"
     inkscape:window-maximized="0"
     inkscape:current-layer="g1" />
  <g
     inkscape:groupmode="layer"
     inkscape:label="Image"
     id="g1">
    <path
       style="fill:#1aaff3;stroke:none"
       d="m 24.542373,61.915254 c 0,-7.219315 -1.239588,-15.536339 2.613426,-21.999229 14.470371,-24.272011 57.787242,-24.125176 73.137341,-0.996911 4.48585,6.758896 3.24923,15.270302 3.24923,22.99614 -17.382179,-8.159637 -16.999999,2.208931 -16.999999,17 0,4.067039 -1.80044,14.108109 1.74229,16.972221 2.7798,2.24733 8.13763,0.607026 11.25771,0.02778 -0.006,2.313087 0.1264,4.722055 -0.34414,7.001545 -3.68306,17.84248 -23.38877,3.36871 -34.63657,6.31636 -4.95383,1.29823 -6.40852,7.67824 -1.79089,10.50308 8.54795,5.22925 34.31653,-2.39205 38.592589,-10.82484 2.2307,-4.39914 0.17716,-9.486875 1.77854,-13.996145 1.54767,-4.358009 5.28765,-7.421028 6.61112,-12 4.49901,-15.565857 2.42866,-42.366249 -6.30093,-56 C 87.508801,2.0152603 48.782096,-1.4277328 29.006879,21.004762 18.190711,33.274347 17.542373,47.443452 17.542373,62.915254 c 0,11.636475 -1.828347,24.872894 10.000771,31.632721 3.010183,1.720184 9.092178,3.898056 12.256946,1.3395 3.542744,-2.864128 1.742283,-12.905174 1.742283,-16.972221 0,-14.791077 0.382179,-25.159637 -17,-17 m 70.999998,-34 C 79.613401,21.888276 67.193051,15.15738 49.542373,20.354295 c -6.076542,1.789124 -11.165543,5.353401 -17,7.560959 14.385838,-20.3660276 48.614178,-20.3660276 62.999998,0 m -51.999998,30 v 39 h 3 l -1,-39 h -2 m 38.999998,0 -1,39 h 3 v -39 h -2 m -47.999998,7 v 25 c -13.644817,-3.253372 -12.300285,-20.815216 0,-25 m 58.999998,25 v -25 c 12.300289,4.184784 13.644809,21.746628 0,25 m -14,26.999996 h -16 c 1.22183,-7.32139 14.77818,-7.3214 16,0 z"
       id="path1" />
  </g>
</svg>
